<svg width="120" height="50" viewBox="0 0 120 50" fill="none" xmlns="http://www.w3.org/2000/svg">
<path fill-rule="evenodd" clip-rule="evenodd" d="M39.3678 42.8533C39.4033 42.6615 39.4221 42.3155 39.359 42.1324C38.5402 41.5657 37.9705 39.9173 37.8859 38.6141C37.7849 37.0617 38.0945 35.4964 38.4533 34.2183C39.1394 31.7735 40.1178 29.1874 41.0598 26.8271C41.5305 25.6473 41.9903 24.4143 42.417 23.1688C42.8332 21.9533 43.2687 20.5891 43.4725 19.2368C43.7711 17.256 43.6414 14.6068 42.7199 12.7806C42.5198 12.3838 41.9327 11.5243 41.5672 11.4434L42.017 13.6543C42.1764 14.4692 42.2499 15.1758 42.2207 16.0449C42.1482 18.1934 40.2862 21.8745 39.3547 23.8381C38.8022 25.0026 38.2204 26.2668 37.6892 27.4476C37.1439 28.66 36.597 30.0688 36.2668 31.3448C35.8539 32.9406 35.6138 34.1497 35.6329 35.9956C35.6407 36.7467 35.808 37.6361 35.9981 38.2982C36.2081 39.0291 36.4449 39.5403 36.7761 40.1799C37.1766 40.9535 38.6469 42.6346 39.3678 42.8533Z" fill="#911E3D"/>
<path fill-rule="evenodd" clip-rule="evenodd" d="M60.886 20.6367C60.832 19.4629 60.9401 13.0571 60.872 12.6735C60.803 12.2845 60.2519 12.3811 59.8254 12.3795C59.2546 12.3772 59.0342 12.3267 59.0396 12.9551C59.0873 18.6685 59.041 24.5079 59.041 30.2464C59.041 30.6096 58.9234 31.2509 59.2805 31.3509C59.4003 31.3846 60.4533 31.3881 60.5928 31.3617C60.9942 31.2857 60.8804 30.7488 60.8804 30.3321C60.8804 29.7595 60.8219 22.5772 60.9199 22.3791C61.0135 22.1898 62.0558 21.2133 62.2944 21.0482C62.8077 20.6932 63.4431 20.373 64.1991 20.2844C65.8417 20.0922 67.1409 20.598 67.4777 22.2466C67.7457 23.5587 67.644 28.5284 67.644 30.0748C67.644 31.5641 67.4834 31.3769 69.0037 31.3724C69.5789 31.3707 69.515 31.0969 69.5134 30.5469V23.8966C69.5139 22.2012 69.3028 20.6764 68.4022 19.6912C66.9533 18.1059 63.5388 18.2119 61.5951 19.9609C61.4809 20.0637 61.3777 20.1536 61.2443 20.2945C61.1193 20.4265 61.0365 20.5434 60.886 20.6367Z" fill="#911E3D"/>
<path fill-rule="evenodd" clip-rule="evenodd" d="M74.0219 24.3328C74.1593 23.825 74.1021 22.4477 74.8988 21.4757C75.0264 21.3198 75.1439 21.1449 75.3547 20.9875C75.5401 20.8494 75.6641 20.7515 75.8971 20.6281C76.888 20.103 78.8395 20.0912 79.8245 20.6197C80.9591 21.2284 81.4016 22.196 81.5608 23.5084C81.5818 23.6827 81.6086 24.1967 81.6459 24.3333L74.0219 24.3328ZM72.123 24.626C72.123 25.9423 72.1316 26.7241 72.5953 28.0232C72.7251 28.3864 72.8771 28.7007 73.0681 29.007C73.2347 29.2742 73.6719 29.8718 73.8818 30.0389C73.9858 30.1215 73.995 30.1256 74.0879 30.2191C74.4344 30.5675 74.9631 30.8674 75.4164 31.0765C77.4679 32.0234 79.9398 31.7204 81.8494 30.6599C82.0895 30.5267 82.3106 30.4051 82.5242 30.2617C83.4538 29.6376 83.3593 29.6431 83.0118 29.0556C82.4521 28.1098 82.473 28.4505 81.623 28.9754C80.0376 29.955 78.2088 30.3351 76.4088 29.6997C75.4253 29.3526 74.7326 28.588 74.369 27.6214C74.0571 26.7923 74.1417 26.3049 74.0236 25.8586C75.0495 25.7942 78.1287 25.8513 79.378 25.8513C80.262 25.8513 81.1546 25.8636 82.0375 25.8524C83.6205 25.8324 83.5152 24.809 83.5152 23.8536C83.5152 22.8837 83.0914 21.5755 82.5739 20.7833C81.0501 18.4502 77.6404 18.1159 75.3253 19.0694C75.0373 19.1879 74.6159 19.417 74.3894 19.5912C73.9905 19.8981 73.9241 19.9998 73.6384 20.2984C73.3042 20.6475 73.2914 20.6818 73.0192 21.1385C72.8362 21.4456 72.6944 21.7901 72.572 22.1491C72.3458 22.8124 72.123 23.8698 72.123 24.626Z" fill="#911E3D"/>
<path fill-rule="evenodd" clip-rule="evenodd" d="M14.7784 23.5958C14.7793 22.5206 15.159 21.3959 15.664 20.6823C16.6389 19.3046 19.0633 19.2013 20.4989 19.8271C20.722 19.9243 20.8969 20.0453 21.0751 20.194C21.5438 20.5845 21.1715 20.2414 21.5434 20.6689C22.2897 21.5263 22.2592 22.8408 22.4121 23.5958H14.7784ZM12.8791 23.725C12.8791 25.0125 12.8527 26.0774 13.37 27.3432C13.6156 27.9442 13.9891 28.6413 14.4494 29.0964C14.5767 29.222 14.6658 29.3151 14.7921 29.4399C15.1046 29.7484 15.6775 30.0909 16.0863 30.2901C18.3019 31.3694 21.2231 30.8957 23.2459 29.5126C23.4148 29.3971 23.5654 29.2949 23.7535 29.1651C23.929 29.0445 24.0772 28.8841 23.9361 28.6168C23.8333 28.4223 23.7239 28.2641 23.6152 28.078C23.1758 27.327 23.1179 27.8165 22.0793 28.3905C20.77 29.1141 20.1227 29.2339 18.7032 29.2339C17.5768 29.2339 16.5537 28.808 15.8229 28.0653C15.1994 27.4317 14.7314 25.9318 14.7841 25.1239C15.5614 25.0021 21.3698 25.2125 22.8645 25.0883C24.288 24.9699 24.2711 24.2534 24.2711 23.2531C24.2711 22.0493 23.7126 20.255 22.8216 19.3883C22.3209 18.901 21.9372 18.5951 21.2405 18.3103C19.6829 17.6736 17.4992 17.6462 15.9585 18.3613C15.2325 18.6983 14.8204 19.0426 14.3348 19.5679C13.4568 20.5174 12.8791 22.3909 12.8791 23.725Z" fill="#911E3D"/>
<path fill-rule="evenodd" clip-rule="evenodd" d="M1.84417 26.9428C1.84417 26.1632 2.28 25.5465 2.72481 25.2414C3.17835 24.9307 3.99007 24.6346 4.63917 24.6346L8.25186 24.6941V26.8998C8.25186 27.0714 8.01146 27.2517 7.91506 27.3459C7.53628 27.7154 7.08547 28.0841 6.63821 28.387C6.14666 28.7195 5.17127 29.2339 4.42483 29.2339C3.5239 29.2339 2.61076 29.1289 2.15548 28.3115C2.09815 28.2083 2.03696 28.0818 1.99589 27.9558C1.89847 27.6563 1.84417 27.262 1.84417 26.9428ZM0.894668 19.2628C0.894668 19.3208 1.16063 20.6117 1.88707 20.2852C2.07796 20.1995 2.18688 20.1362 2.38196 20.0508C3.55221 19.5391 4.19137 19.4715 5.36828 19.4715C6.73103 19.4715 8.25186 20.1175 8.25186 21.7514L8.23668 23.1516C6.00907 23.065 2.68162 22.6644 0.96533 24.3821C0.466118 24.8817 0.00471883 25.7806 0.00471883 26.5137C0.00471883 27.4683 -0.0659429 28.0386 0.33961 28.9717C0.849675 30.1458 2.18221 30.8661 3.48155 30.8661C4.66565 30.8661 5.4363 30.7551 6.54123 30.0488C7.06354 29.7151 8.01841 29.0602 8.31804 28.6502C8.38178 28.7404 8.3143 28.5671 8.37949 28.7742C8.44477 28.9817 8.50155 30.6287 9.57045 30.6287C10.663 30.6287 10.3556 30.5635 10.196 29.0648C9.96257 26.8727 10.3468 21.8822 9.94118 20.3949C9.62066 19.2197 8.84765 18.5375 7.71548 18.1598C6.25858 17.6737 4.01454 17.7443 2.53881 18.2357C2.12836 18.3722 0.894668 18.7824 0.894668 19.2628Z" fill="#911E3D"/>
<path fill-rule="evenodd" clip-rule="evenodd" d="M39.3594 42.1324C39.4225 42.3155 39.4037 42.6615 39.3681 42.8533C39.4231 44.4374 39.6798 46.0102 40.3323 47.2615C40.4904 47.5649 40.6309 47.8172 40.8227 48.1011C41.2415 48.7217 42.3472 49.8913 42.9278 50C42.843 49.6589 42.1983 48.6899 41.9734 48.3235C41.6329 47.7688 41.3673 47.2472 41.1771 46.5437C40.2989 43.2939 42.8664 37.1688 44.0211 34.2564C44.8941 32.0549 46.2302 28.7518 46.5719 26.4619C46.8667 24.4861 46.8342 21.5783 45.8929 19.7751C45.6669 19.3426 45.1402 18.5063 44.7292 18.3734C44.7081 18.7451 45.3266 20.7283 45.4441 21.506C45.6261 22.7093 45.4316 23.8784 45.1834 24.9503C44.8218 26.5131 43.7738 29.0495 43.1148 30.5611C42.3297 32.3622 41.5701 34.1747 40.8801 36.0037C40.5333 36.9227 40.1785 37.8942 39.8981 38.8385C39.2898 40.8875 39.5602 40.2156 39.3594 42.1324Z" fill="#D8C2A3"/>
<path fill-rule="evenodd" clip-rule="evenodd" d="M42.375 9.86921C42.6487 9.76759 43.3639 8.4909 43.5085 8.25766C43.9108 7.60946 44.4477 6.79217 44.9409 6.21482L45.9826 5.15514C46.2075 4.92992 46.467 4.73664 46.7168 4.51615C46.8661 4.38423 46.9477 4.3461 47.1024 4.21653C47.2233 4.11546 47.3897 3.99916 47.5191 3.90238C49.6935 2.2784 53.1459 1.10325 55.837 1.10325C57.9549 1.10325 59.008 1.10006 61.1415 1.55818C61.6595 1.66939 62.253 1.83535 62.7229 1.99101L63.87 2.34278C63.9978 2.3812 64.1457 2.41115 64.2489 2.48719C64.1218 2.55074 63.0951 2.76995 62.8694 2.82792C60.9871 3.3107 59.691 3.99414 58.1968 5.10603C57.6837 5.48784 56.8176 6.42826 56.4138 6.83964L55.7864 7.49934C55.6836 7.61081 55.6854 7.6539 55.5815 7.76595L54.2953 9.05321C54.1863 9.15343 54.1515 9.15437 54.0519 9.23972L53.5645 9.65164C50.697 11.9785 46.5595 12.28 46.3243 12.4411C47.0962 13.2326 49.4621 12.9762 50.5592 12.7782C51.892 12.5377 53.0446 12.0589 54.1604 11.3199C57.7824 8.92054 58.6344 5.10931 63.233 3.53902C63.6751 3.38803 64.0935 3.27163 64.5252 3.16261C64.9146 3.06473 65.67 2.99014 65.9525 2.88508C65.8031 2.50984 64.2548 1.9418 63.9283 1.81217C63.1932 1.52001 62.4127 1.23034 61.6218 0.988114C60.1738 0.544783 57.8798 0.00540638 56.3945 0.00540638C54.5003 0.00540638 53.7892 -0.0700884 51.9312 0.342389C50.1037 0.748102 48.5172 1.53698 47.0714 2.6403L45.8418 3.7701L44.6097 5.28149C44.1207 5.91958 43.3822 7.0856 43.0561 7.80347C42.7801 8.41167 42.4727 9.14239 42.375 9.86921Z" fill="#D8C2A3"/>
<path fill-rule="evenodd" clip-rule="evenodd" d="M40.4993 18.6701C40.8673 17.3804 41.0602 16.2417 41.0632 14.7151C41.0656 13.3464 40.7176 12.3047 39.9064 11.3061C39.7966 11.171 39.7888 11.1328 39.6549 10.9994C39.0253 10.3713 37.9945 9.83507 37.1337 9.53077C32.9313 8.04548 26.1135 8.81629 22.8956 5.58688C21.8816 4.56958 22.0588 4.47873 21.7125 3.38037C21.6674 3.23721 21.4684 2.64086 21.3622 2.59229C21.2225 2.89166 21.4092 4.25669 21.4733 4.56401C21.5764 5.05984 21.8464 5.759 22.0897 6.13466C22.228 6.34829 22.3719 6.58849 22.5309 6.76614C23.8834 8.27727 25.505 9.01141 27.4757 9.58144C28.6683 9.92644 29.8063 10.1915 31.0325 10.4434C33.9847 11.0499 38.0413 12.6037 39.5159 15.2156C39.7626 15.6525 39.9807 16.3068 40.1022 16.8148L40.376 18.2054C40.4094 18.4119 40.3801 18.54 40.4993 18.6701Z" fill="#911E3D"/>
<path fill-rule="evenodd" clip-rule="evenodd" d="M26.586 20.8933C26.586 21.74 26.5597 22.1539 27.1744 22.9295C27.6504 23.5307 28.9018 24.1859 29.6246 24.5103C30.0999 24.7238 30.5301 24.9759 30.9606 25.1908C31.7744 25.5971 32.7753 26.1999 32.6899 27.4588C32.6469 28.0937 32.3337 28.4898 31.9727 28.7624C31.0403 29.4674 29.3067 29.334 28.3421 28.7964C27.303 28.2172 27.2335 27.5783 26.6974 28.4195C26.1278 29.313 26.0077 29.1441 27.0165 29.9109C28.563 31.0869 31.0142 31.1831 32.7461 30.2666C32.9839 30.1407 33.0876 30.0447 33.2885 29.9078C33.8439 29.53 34.5665 28.5251 34.5665 27.5863C34.5665 26.3227 34.4411 25.8027 33.5625 24.8619C32.0148 23.2053 27.8125 22.8532 28.5178 20.6756C28.9817 19.2436 31.1614 19.2563 32.4116 19.8327C32.609 19.9239 32.7572 20.0422 32.9472 20.1153C33.3638 20.2752 33.4736 19.9256 33.7393 19.4624C33.9776 19.047 34.1977 18.8406 33.5614 18.5123C32.2924 17.8572 31.6237 17.8393 30.2386 17.8393C28.9445 17.8393 27.5757 18.4667 26.9697 19.5957C26.806 19.9009 26.586 20.4976 26.586 20.8933Z" fill="#911E3D"/>
<path fill-rule="evenodd" clip-rule="evenodd" d="M119.857 28.5714V27.5838C119.716 27.2863 119.762 26.6937 119.247 26.0503C119.057 25.8122 118.956 25.6545 118.74 25.4858C117.145 24.2391 115.578 23.9203 114.581 23.2135C113.075 22.1464 113.741 20.5771 115.311 20.2882C115.924 20.1754 116.699 20.2193 117.255 20.4081C117.998 20.6607 118.469 21.1812 118.744 20.7237C119.222 19.9291 119.494 19.6493 119.001 19.3466C118.089 18.7865 116.786 18.4938 115.515 18.6035C114.151 18.7214 113.315 19.0124 112.546 19.9273C112.224 20.31 112.004 20.8563 111.908 21.4404C111.771 22.2733 111.93 22.9611 112.387 23.5633L112.781 23.9831C113.129 24.3015 113.461 24.5141 113.898 24.752C115.693 25.7278 118.066 26.3167 117.986 28.1879C117.901 30.19 114.962 30.3192 113.729 29.6033C113.473 29.455 113.328 29.3538 113.079 29.1766C112.437 28.7188 112.435 28.515 111.882 29.3465C111.765 29.5218 111.501 29.8041 111.586 30.0249C111.672 30.2468 112.527 30.8268 112.784 30.9737C113.257 31.2438 113.743 31.4361 114.358 31.5449C115.625 31.769 117.043 31.5819 117.999 31.0435C118.448 30.7904 118.931 30.4542 119.182 30.0868C119.891 29.0527 119.633 29.0304 119.857 28.5714Z" fill="#911E3D"/>
<path fill-rule="evenodd" clip-rule="evenodd" d="M99.8321 24.4972C99.8321 25.7754 99.8181 26.8019 100.256 28.0632C100.509 28.79 100.844 29.4169 101.276 29.8743C101.634 30.2544 101.287 29.9496 101.789 30.3922C101.865 30.4595 101.924 30.5196 101.994 30.5725C103.344 31.5923 105.31 31.8936 107 31.4101C107.465 31.2771 107.736 31.1461 108.122 30.9469C108.444 30.7807 109.219 30.2578 109.488 29.9971C109.919 29.5789 109.595 29.373 109.355 28.9574C109.268 28.8067 109.154 28.6037 108.983 28.5508C108.624 28.4398 108.106 29.2783 106.98 29.6742C106.284 29.9189 106.04 29.9758 105.364 29.9758C104.848 29.9758 104.095 29.7849 103.722 29.572C103.14 29.2396 102.97 29.0461 102.625 28.6095C101.325 26.9668 101.174 22.0698 103.558 20.7171C104.909 19.9504 106.595 20.1328 107.889 20.9391C108.115 21.08 108.537 21.4303 108.854 21.1235C108.911 21.0684 109.322 20.3517 109.345 20.2384C109.392 20.0044 109.305 19.8804 109.169 19.7869C107.91 18.9188 106.86 18.581 105.235 18.581C103.634 18.581 102.285 19.2189 101.293 20.2947C100.87 20.7544 100.5 21.4182 100.268 22.1003C100.063 22.7009 99.8321 23.7982 99.8321 24.4972Z" fill="#911E3D"/>
<path fill-rule="evenodd" clip-rule="evenodd" d="M50.5854 18.9444L49.2877 19.1859C48.8225 19.261 48.8947 19.1335 48.8947 19.9065C48.8947 20.7364 49.9489 20.3066 50.5854 20.4419C50.5872 22.7518 50.5854 25.0619 50.5854 27.3718C50.5854 28.7781 50.5913 30.5962 51.8796 31.2902C52.9664 31.8755 54.6963 31.6318 55.8042 31.288C56.7357 30.9988 56.7353 30.9577 56.6292 30.4409C56.3683 29.1723 56.4291 29.7099 54.8368 29.9687C54.1263 30.084 53.2976 30.0574 52.8994 29.6242C52.2626 28.9312 52.4548 26.4663 52.4548 25.2695C52.4548 23.6549 52.4548 22.0405 52.4548 20.4259C53.3722 20.3869 54.4591 20.4335 55.4106 20.4223C56.139 20.4139 56.0146 20.2164 56.0146 19.22C56.0146 18.8543 55.7358 18.8452 55.4097 18.8473C54.5975 18.853 53.1527 18.8807 52.4548 18.8418C52.4548 18.5366 52.504 15.9619 52.398 15.7939C52.2478 15.5558 51.8473 15.8264 51.6743 15.9131C50.3203 16.5919 50.5854 16.1654 50.5854 18.9444Z" fill="#911E3D"/>
<path fill-rule="evenodd" clip-rule="evenodd" d="M86.7195 18.9668L85.0487 19.2498C85.003 19.374 85.0287 19.8402 85.0287 19.9923C85.0287 20.587 85.8557 20.421 86.7197 20.421L86.7195 28.5731C86.7195 29.2592 87.0006 30.3167 87.3826 30.7743C87.5998 31.0347 87.8239 31.2352 88.1857 31.3881C89.6902 32.0237 92.5101 31.2664 92.7461 30.9203C92.8446 30.7758 92.6906 30.1357 92.6374 29.9318C92.4841 29.3442 92.1153 29.7881 90.9411 29.9686C90.2561 30.074 89.4186 30.077 89.0095 29.6195C88.4042 28.9427 88.5589 26.4266 88.5589 25.2695C88.5589 23.6547 88.5589 22.04 88.5589 20.4251C89.5127 20.391 90.5821 20.4324 91.5583 20.4223C92.2665 20.4153 92.1487 20.1067 92.1487 19.3058C92.1487 18.9673 91.9795 18.8481 91.6448 18.8461C90.6802 18.8406 89.4606 18.8852 88.5589 18.8427L88.5593 16.3022C88.5638 15.5126 88.4599 15.5727 87.4645 16.0699C87.2155 16.1944 86.8705 16.3068 86.7614 16.5669C86.6685 16.7885 86.7195 18.5627 86.7195 18.9668Z" fill="#911E3D"/>
<path fill-rule="evenodd" clip-rule="evenodd" d="M95.2344 19.3487V30.847C95.2344 31.5263 95.6536 31.3705 96.7026 31.3705C96.9619 31.3705 97.1036 31.2366 97.1036 30.9758V19.2628C97.1036 18.6915 96.5382 18.8481 95.5876 18.8481C95.3379 18.8481 95.2344 19.0711 95.2344 19.3487Z" fill="#911E3D"/>
<path fill-rule="evenodd" clip-rule="evenodd" d="M38.9187 3.40694C38.4406 3.48582 38.2676 3.46546 37.8531 3.66949C36.8945 4.14123 36.3399 5.08806 36.4479 6.26459C36.5852 7.75726 37.59 8.9077 39.2808 8.78525C41.981 8.58998 42.3305 5.46447 40.9155 4.07431C40.5169 3.68283 39.687 3.28001 38.9187 3.40694Z" fill="#911E3D"/>
<path fill-rule="evenodd" clip-rule="evenodd" d="M72.0976 9.06032L75.3067 9.05459C75.6228 9.06992 75.7966 9.2452 75.805 9.5685C75.8241 10.2978 74.8247 10.0944 74.1902 10.0944C73.516 10.0944 72.758 10.1268 72.0937 10.0877L72.0976 9.06032ZM72.1028 6.44826C72.7587 6.42626 73.445 6.44472 74.1044 6.44472C74.661 6.44472 75.6117 6.28887 75.6166 6.94992C75.6214 7.64296 74.7236 7.45361 74.1044 7.45361C73.4464 7.45361 72.7576 7.47306 72.0953 7.44987L72.1028 6.44826ZM70.3155 4.73216C70.2403 4.94115 70.2476 11.1282 70.2925 11.7976C70.7246 11.8533 75.1734 11.8157 75.9883 11.8154C76.1795 11.8154 76.5191 11.7582 76.668 11.7055C77.0695 11.5633 77.2736 11.3149 77.4419 10.931C77.5315 10.7259 77.5811 10.5049 77.613 10.2918C77.7009 9.70663 77.6334 8.89755 77.2037 8.48134C77.0194 8.30265 76.8404 8.31837 76.6908 8.19357C76.92 8.02815 76.9645 8.06245 77.1115 7.85558C77.494 7.31795 77.4984 6.51036 77.3534 5.8848C77.1415 4.97147 76.3724 4.7234 75.3478 4.7234L70.3155 4.73216Z" fill="#D8C2A3"/>
<path fill-rule="evenodd" clip-rule="evenodd" d="M84.3075 6.54734C84.5649 6.48733 85.8232 6.53371 86.1966 6.53371C86.7714 6.53371 87.4826 6.45429 87.7067 6.8991C87.8929 7.26855 87.8624 8.23219 87.8258 8.70921C87.7055 10.2778 87.5358 10.0047 85.2962 10.0054C83.6384 10.0057 83.637 9.92683 83.6633 7.80503C83.6713 7.15534 83.7081 6.68718 84.3075 6.54734ZM81.8249 7.37847C81.8249 9.64892 81.496 11.8752 84.0956 11.8752H87.9535C88.6237 11.8752 89.1296 11.3754 89.3598 10.9292C89.8596 9.96043 89.7725 6.39596 89.3793 5.61081C88.9293 4.71146 87.9596 4.63449 87.0114 4.63449C85.818 4.63449 83.311 4.48366 82.543 5.09627C82.2822 5.30433 82.0976 5.64633 82.0012 6.05221C81.9276 6.36272 81.8249 7.02371 81.8249 7.37847Z" fill="#D8C2A3"/>
<path fill-rule="evenodd" clip-rule="evenodd" d="M104.164 4.84693L104.17 11.7945C104.576 11.8569 110.426 11.8444 110.623 11.785V10.0989C109.37 10.055 107.343 10.0943 106.007 10.0944L106.003 8.9077H110.21C110.356 8.9077 110.335 8.85009 110.335 8.70841V7.42132C110.335 7.3187 110.307 7.30518 110.21 7.30518H106.005L106.012 6.44453L110.574 6.44473L110.566 4.72323L104.46 4.72003C104.261 4.71685 104.164 4.67186 104.164 4.84693Z" fill="#D8C2A3"/>
<path fill-rule="evenodd" clip-rule="evenodd" d="M119.857 11.795V11.6877C119.616 11.5296 118.76 10.352 118.425 9.97002C118.189 9.70142 117.944 9.38608 117.723 9.12745L117.029 8.23648C117.134 8.07016 117.25 7.92407 117.358 7.79633L118.028 6.91982C118.252 6.58477 119.606 4.9585 119.674 4.72944C119.157 4.70042 118.58 4.72341 118.056 4.72341C117.198 4.72322 117.41 4.56193 116.584 5.73379L115.526 7.14669C115.456 7.09493 113.823 4.91704 113.738 4.72341L111.371 4.72377C111.385 4.90564 111.891 5.49961 111.998 5.62898C112.231 5.9087 112.446 6.21519 112.676 6.49748L113.686 7.80383C113.796 7.93376 113.929 8.11918 114.012 8.23648L112.099 10.6422C111.924 10.8662 111.268 11.6229 111.203 11.795C111.471 11.8439 113.396 11.8441 113.642 11.7868L115.476 9.30199C115.667 9.39249 115.858 9.72625 115.977 9.88922C116.374 10.4361 117.094 11.3287 117.402 11.8079L119.857 11.795Z" fill="#D8C2A3"/>
<path fill-rule="evenodd" clip-rule="evenodd" d="M90.6953 11.7977L92.5051 11.8167L92.5065 9.41493C93.1612 9.39493 96.2518 9.46259 96.5607 9.38533C96.5951 8.94676 96.5684 8.42437 96.573 7.97482C96.5768 7.60334 96.5333 7.6855 96.146 7.69027C95.0943 7.70295 93.4423 7.73416 92.5051 7.68479L92.5067 6.44826L96.7771 6.44379L96.7765 4.73355L90.7007 4.72305L90.6953 11.7977Z" fill="#D8C2A3"/>
<path fill-rule="evenodd" clip-rule="evenodd" d="M97.666 11.7705C97.8613 11.8612 102.809 11.8503 103.354 11.805L103.362 9.9461L99.5092 9.94509C99.4759 9.13209 99.5673 5.07408 99.4774 4.73236L97.6682 4.72515L97.666 11.7705Z" fill="#D8C2A3"/>
<path fill-rule="evenodd" clip-rule="evenodd" d="M80.591 11.81L80.608 4.73556L78.8006 4.72495C78.7431 6.91333 78.8231 9.2054 78.7972 11.4128C78.7906 11.9724 78.8674 11.8158 79.4638 11.8156C79.8258 11.8156 80.2349 11.8334 80.591 11.81Z" fill="#D8C2A3"/>
<path fill-rule="evenodd" clip-rule="evenodd" d="M96.1025 15.8217C96.8148 15.8217 97.4003 15.4391 97.4003 14.8008V14.5433C97.4003 13.1825 94.96 13.016 94.9128 14.6343C94.8912 15.3685 95.3996 15.8217 96.1025 15.8217Z" fill="#911E3D"/>
</svg>
